<svg width="23" height="20" viewBox="0 0 23 20" fill="none" xmlns="http://www.w3.org/2000/svg">
    <path d="M9.55882 3.75C8.87238 3.75 8.21405 4.01339 7.72866 4.48223C7.24328 4.95107 6.97059 5.58696 6.97059 6.25C6.97059 6.91304 7.24328 7.54893 7.72866 8.01777C8.21405 8.48661 8.87238 8.75 9.55882 8.75C10.2453 8.75 10.9036 8.48661 11.389 8.01777C11.8744 7.54893 12.1471 6.91304 12.1471 6.25C12.1471 5.58696 11.8744 4.95107 11.389 4.48223C10.9036 4.01339 10.2453 3.75 9.55882 3.75ZM8.26471 6.25C8.26471 5.91848 8.40105 5.60054 8.64374 5.36612C8.88644 5.1317 9.2156 5 9.55882 5C9.90205 5 10.2312 5.1317 10.4739 5.36612C10.7166 5.60054 10.8529 5.91848 10.8529 6.25C10.8529 6.58152 10.7166 6.89946 10.4739 7.13388C10.2312 7.3683 9.90205 7.5 9.55882 7.5C9.2156 7.5 8.88644 7.3683 8.64374 7.13388C8.40105 6.89946 8.26471 6.58152 8.26471 6.25ZM0.5 1.875C0.5 1.37772 0.704516 0.900806 1.06856 0.549175C1.4326 0.197544 1.92634 0 2.44118 0H16.6765C17.1913 0 17.685 0.197544 18.0491 0.549175C18.4131 0.900806 18.6176 1.37772 18.6176 1.875V6.25H17.3235V5H16.0294C15.343 5 14.6846 4.73661 14.1993 4.26777C13.7139 3.79893 13.4412 3.16304 13.4412 2.5V1.25H5.67647V2.5C5.67647 3.16304 5.40378 3.79893 4.91839 4.26777C4.43301 4.73661 3.77468 5 3.08824 5H1.79412V7.5H3.08824C3.77468 7.5 4.43301 7.76339 4.91839 8.23223C5.40378 8.70107 5.67647 9.33696 5.67647 10V11.25H12.1471V12.5H2.44118C1.92634 12.5 1.4326 12.3025 1.06856 11.9508C0.704516 11.5992 0.5 11.1223 0.5 10.625V1.875ZM2.44118 1.25C2.26957 1.25 2.10498 1.31585 1.98364 1.43306C1.86229 1.55027 1.79412 1.70924 1.79412 1.875V3.75H3.08824C3.43146 3.75 3.76062 3.6183 4.00331 3.38388C4.24601 3.14946 4.38235 2.83152 4.38235 2.5V1.25H2.44118ZM16.6765 1.25H14.7353V2.5C14.7353 2.83152 14.8716 3.14946 15.1143 3.38388C15.357 3.6183 15.6862 3.75 16.0294 3.75H17.3235V1.875C17.3235 1.70924 17.2554 1.55027 17.134 1.43306C17.0127 1.31585 16.8481 1.25 16.6765 1.25ZM2.44118 11.25H4.38235V10C4.38235 9.66848 4.24601 9.35054 4.00331 9.11612C3.76062 8.8817 3.43146 8.75 3.08824 8.75H1.79412V10.625C1.79412 10.7908 1.86229 10.9497 1.98364 11.0669C2.10498 11.1842 2.26957 11.25 2.44118 11.25ZM19.9118 6.25V2.60625C20.2904 2.73555 20.6182 2.9751 20.85 3.29189C21.0817 3.60867 21.2061 3.98709 21.2059 4.375V6.25H19.9118ZM12.1471 13.75V15H5.02941C4.62781 15.0002 4.23604 14.8801 3.90807 14.6562C3.58011 14.4323 3.3321 14.1157 3.19824 13.75H12.1471ZM15.3824 7.5C14.8675 7.5 14.3738 7.69754 14.0097 8.04917C13.6457 8.40081 13.4412 8.87772 13.4412 9.375V18.125C13.4412 18.6223 13.6457 19.0992 14.0097 19.4508C14.3738 19.8025 14.8675 20 15.3824 20H20.5588C21.0737 20 21.5674 19.8025 21.9314 19.4508C22.2955 19.0992 22.5 18.6223 22.5 18.125V9.375C22.5 8.87772 22.2955 8.40081 21.9314 8.04917C21.5674 7.69754 21.0737 7.5 20.5588 7.5H15.3824ZM15.3824 12.5H16.6765C16.8481 12.5 17.0127 12.5658 17.134 12.6831C17.2554 12.8003 17.3235 12.9592 17.3235 13.125C17.3235 13.2908 17.2554 13.4497 17.134 13.5669C17.0127 13.6842 16.8481 13.75 16.6765 13.75H15.3824C15.2107 13.75 15.0462 13.6842 14.9248 13.5669C14.8035 13.4497 14.7353 13.2908 14.7353 13.125C14.7353 12.9592 14.8035 12.8003 14.9248 12.6831C15.0462 12.5658 15.2107 12.5 15.3824 12.5ZM19.2647 12.5H20.5588C20.7304 12.5 20.895 12.5658 21.0164 12.6831C21.1377 12.8003 21.2059 12.9592 21.2059 13.125C21.2059 13.2908 21.1377 13.4497 21.0164 13.5669C20.895 13.6842 20.7304 13.75 20.5588 13.75H19.2647C19.0931 13.75 18.9285 13.6842 18.8072 13.5669C18.6858 13.4497 18.6176 13.2908 18.6176 13.125C18.6176 12.9592 18.6858 12.8003 18.8072 12.6831C18.9285 12.5658 19.0931 12.5 19.2647 12.5ZM15.3824 15H16.6765C16.8481 15 17.0127 15.0658 17.134 15.1831C17.2554 15.3003 17.3235 15.4592 17.3235 15.625C17.3235 15.7908 17.2554 15.9497 17.134 16.0669C17.0127 16.1842 16.8481 16.25 16.6765 16.25H15.3824C15.2107 16.25 15.0462 16.1842 14.9248 16.0669C14.8035 15.9497 14.7353 15.7908 14.7353 15.625C14.7353 15.4592 14.8035 15.3003 14.9248 15.1831C15.0462 15.0658 15.2107 15 15.3824 15ZM19.2647 15H20.5588C20.7304 15 20.895 15.0658 21.0164 15.1831C21.1377 15.3003 21.2059 15.4592 21.2059 15.625C21.2059 15.7908 21.1377 15.9497 21.0164 16.0669C20.895 16.1842 20.7304 16.25 20.5588 16.25H19.2647C19.0931 16.25 18.9285 16.1842 18.8072 16.0669C18.6858 15.9497 18.6176 15.7908 18.6176 15.625C18.6176 15.4592 18.6858 15.3003 18.8072 15.1831C18.9285 15.0658 19.0931 15 19.2647 15ZM15.3824 17.5H16.6765C16.8481 17.5 17.0127 17.5658 17.134 17.6831C17.2554 17.8003 17.3235 17.9592 17.3235 18.125C17.3235 18.2908 17.2554 18.4497 17.134 18.5669C17.0127 18.6842 16.8481 18.75 16.6765 18.75H15.3824C15.2107 18.75 15.0462 18.6842 14.9248 18.5669C14.8035 18.4497 14.7353 18.2908 14.7353 18.125C14.7353 17.9592 14.8035 17.8003 14.9248 17.6831C15.0462 17.5658 15.2107 17.5 15.3824 17.5ZM19.2647 17.5H20.5588C20.7304 17.5 20.895 17.5658 21.0164 17.6831C21.1377 17.8003 21.2059 17.9592 21.2059 18.125C21.2059 18.2908 21.1377 18.4497 21.0164 18.5669C20.895 18.6842 20.7304 18.75 20.5588 18.75H19.2647C19.0931 18.75 18.9285 18.6842 18.8072 18.5669C18.6858 18.4497 18.6176 18.2908 18.6176 18.125C18.6176 17.9592 18.6858 17.8003 18.8072 17.6831C18.9285 17.5658 19.0931 17.5 19.2647 17.5ZM14.7353 9.375C14.7353 9.20924 14.8035 9.05027 14.9248 8.93306C15.0462 8.81585 15.2107 8.75 15.3824 8.75H20.5588C20.7304 8.75 20.895 8.81585 21.0164 8.93306C21.1377 9.05027 21.2059 9.20924 21.2059 9.375V10.625C21.2059 10.7908 21.1377 10.9497 21.0164 11.0669C20.895 11.1842 20.7304 11.25 20.5588 11.25H15.3824C15.2107 11.25 15.0462 11.1842 14.9248 11.0669C14.8035 10.9497 14.7353 10.7908 14.7353 10.625V9.375Z" fill="#FEFEFE"/>
</svg>
